<!-- Generator: Adobe Illustrator 18.0.0, SVG Export Plug-In  -->
<svg version="1.1"
	 xmlns="http://www.w3.org/2000/svg" xmlns:xlink="http://www.w3.org/1999/xlink" xmlns:a="http://ns.adobe.com/AdobeSVGViewerExtensions/3.0/"
	 x="0px" y="0px" width="584.3px" height="575.2px" viewBox="0 0 584.3 575.2" enable-background="new 0 0 584.3 575.2"
	 xml:space="preserve">
<defs>
</defs>
<path fill="#FFFFFF" d="M248.8,391c3,8.7,18.5-1,14.6,3.2s-7.3,14.2-6.4,17.2c0.9,3-5.2,7-10.3,5.5s-11.2-6-6.7-9.5
	S248.2,389.2,248.8,391z"/>
<path d="M257,409.8c0.3,2.2,0.4,5.5-5.1,5.8c-8.5,0.3-12.9-10-13.6-10.8c0,0-0.5-0.2-0.6-0.2c-0.8,0.2-11.3,3.1-11,11.6c0,0,0,0,0,0
	c3.5,6.7,42.7,27.9,58.3,26.3c15.7-1.6,3-9.7-0.2-11.9"/>
<path fill="#87D3DF" stroke="#1A2B37" stroke-width="2" stroke-miterlimit="10" d="M207.4,288.4c5.7,0.4,72.3,2.2,78.3,5.4
	c5,2.7-43.8,99.7-43.2,101c-1-0.2,13.4,8.8,17.8,8.2s72-109,72-109c11.5-27.7-11.5-34.1-14-35c-4.4-1.7-72.1-16.3-101.2-23.6
	C211.6,252.8,204.3,269.9,207.4,288.4z"/>
<path fill="#87D3DF" d="M272.1,442.1l-22.3-7.3c-2-0.6-4.2,0.2-5,1.9s0.3,3.6,2.2,4.3l22.3,7.3c2,0.6,4.2-0.2,5-1.9
	C275.1,444.7,274.1,442.7,272.1,442.1z M259.6,443.8c-1.4,0-2.6-1-2.6-2.2c0-1.2,1.2-2.2,2.6-2.2c1.4,0,2.6,1,2.6,2.2
	C262.2,442.8,261,443.8,259.6,443.8z"/>
<path fill="#FFFFFF" d="M260.5,439.6l-0.1,0c-1.2-0.4-2.6,0.2-3,1.5l-18.5,54c-0.4,1.2,0.2,2.6,1.5,3l0.1,0c1.2,0.4,2.6-0.2,3-1.5
	l18.5-54C262.4,441.4,261.7,440,260.5,439.6z"/>
<g>
	<g id="XMLID_4_">
		<g>
		</g>
		<g>
			<path fill="none" stroke="#FFFFFF" stroke-width="4" stroke-miterlimit="10" d="M373,469.7c0.5,57.1,47.1,102.2,104.2,100.8
				c57.1-1.4,103-48.7,102.5-105.8c-0.5-57.1-47.1-102.2-104.2-100.8C418.4,365.2,372.5,412.6,373,469.7z"/>
		</g>
	</g>
	<g id="XMLID_3_">
		<g>
		</g>
		<g>
			<path fill="none" stroke="#1A2B37" stroke-width="4" stroke-miterlimit="10" d="M370.3,469.8c0.5,58.5,48.3,104.8,106.9,103.4
				c58.5-1.4,105.6-50,105.1-108.5c-0.5-58.5-48.3-104.8-106.9-103.4C416.9,362.6,369.9,411.2,370.3,469.8z"/>
		</g>
	</g>
</g>
<g>
	<path fill="#F47E5D" d="M476.1,467.9c0,0-0.1,0-0.4-0.1c-0.3-0.1-0.7-0.2-1.2-0.4c-1-0.4-2.5-1.1-4.2-2.1c-0.4-0.3-0.9-0.5-1.4-0.8
		c-0.5-0.3-0.9-0.6-1.4-1c-0.5-0.3-1-0.7-1.6-1.1c-0.5-0.4-1-0.8-1.6-1.2c-1.1-0.9-2.3-1.8-3.4-2.8c-1.1-1.1-2.3-2.2-3.6-3.4
		c-1.2-1.2-2.4-2.6-3.7-3.9c-0.6-0.7-1.3-1.4-1.9-2.1c-0.6-0.7-1.2-1.5-1.8-2.3c-1.2-1.5-2.5-3.1-3.8-4.7c-1.2-1.7-2.4-3.4-3.6-5.2
		c-0.6-0.9-1.2-1.8-1.8-2.7c-0.6-0.9-1.1-1.8-1.7-2.8c-1.1-1.9-2.3-3.8-3.5-5.7c-1.2-1.9-2.2-3.9-3.3-5.9c-1.1-2-2.1-4-3.2-6
		l-0.8-1.5l-0.7-1.5c-0.5-1-1-2.1-1.4-3.1c-1-2.1-1.9-4.1-2.8-6.1c-0.5-1-1-2-1.4-3c-0.4-1-0.8-2-1.2-3.1c-0.8-2-1.6-4-2.4-6
		c-0.8-2-1.6-3.9-2.4-5.8c-0.7-1.9-1.4-3.8-2-5.7c-1.3-3.7-2.5-7.2-3.7-10.4c-0.6-1.6-1.1-3.2-1.5-4.6c-0.5-1.5-0.9-2.9-1.3-4.2
		c-0.8-2.6-1.5-4.9-2.1-6.8c-1.2-3.8-1.6-6-1.6-6c-0.2-1.3,0.6-2.5,1.9-2.7c1.1-0.2,2.1,0.4,2.5,1.4l0,0.1c0,0,0.9,2.1,1.9,5.9
		c0.5,1.9,1.2,4.2,1.9,6.8c0.4,1.3,0.8,2.7,1.2,4.2c0.4,1.5,0.8,3,1.4,4.6c1,3.2,2.2,6.7,3.4,10.3c0.6,1.8,1.2,3.7,1.9,5.6
		c0.7,1.9,1.4,3.8,2.2,5.8c0.7,2,1.5,4,2.3,6c0.4,1,0.8,2,1.2,3.1c0.4,1,0.9,2,1.3,3c0.9,2,1.8,4.1,2.7,6.1c0.4,1,0.9,2.1,1.3,3.1
		l0.7,1.5l0.8,1.5c1,2,2,4,3,6c1,2,1.9,4,3.1,5.9c1.1,1.9,2.2,3.8,3.3,5.7c0.6,0.9,1,1.9,1.6,2.8c0.6,0.9,1.2,1.8,1.7,2.7
		c1.2,1.8,2.3,3.5,3.4,5.2c1.2,1.6,2.4,3.2,3.6,4.7c0.6,0.8,1.2,1.5,1.7,2.3c0.6,0.7,1.2,1.4,1.8,2.1c1.2,1.3,2.3,2.7,3.5,3.9
		c1.2,1.2,2.3,2.3,3.4,3.4c1.1,1.1,2.2,1.9,3.3,2.8c0.5,0.4,1,0.9,1.5,1.3c0.5,0.4,1,0.7,1.5,1.1c0.5,0.3,0.9,0.7,1.4,1
		c0.4,0.3,0.9,0.6,1.3,0.8c1.6,1,3,1.7,3.9,2.1c0.5,0.2,0.8,0.3,1.1,0.4c0.3,0.1,0.4,0.1,0.4,0.1l0,0c0.4,0.1,0.6,0.5,0.5,0.9
		C476.9,467.8,476.5,468,476.1,467.9z"/>
</g>
<line fill="none" stroke="#F47E5D" stroke-width="6" stroke-linecap="round" stroke-linejoin="round" stroke-miterlimit="10" x1="240.8" y1="495.7" x2="199" y2="305.8"/>
<polyline fill="none" stroke="#FFFFFF" stroke-width="4" stroke-linecap="round" stroke-linejoin="round" stroke-miterlimit="10" points="
	396.5,303.8 388.7,267.5 435.9,267.5 "/>
<polyline fill="none" stroke="#F47E5D" stroke-width="6" stroke-linecap="round" stroke-linejoin="round" stroke-miterlimit="10" points="
	240.8,496.8 406.6,349 396.5,303.8 "/>
<path fill="none" stroke="#87D3DF" stroke-width="8" stroke-linecap="round" stroke-linejoin="round" stroke-miterlimit="10" d="
	M435.9,267.5c0,0,87.7,15.9,0,55.8"/>
<path fill="none" stroke="#000000" stroke-width="14" stroke-linecap="round" stroke-linejoin="round" stroke-miterlimit="10" d="
	M270.3,350.8"/>
<g>
	<g id="XMLID_2_">
		<g>
		</g>
		<g>
			<path fill="none" stroke="#FFFFFF" stroke-width="4" stroke-miterlimit="10" d="M4.6,469.7c0.5,57.1,47.1,102.2,104.2,100.8
				c57.1-1.4,103-48.7,102.5-105.8c-0.5-57.1-47.1-102.2-104.2-100.8C50.1,365.2,4.2,412.6,4.6,469.7z"/>
		</g>
	</g>
	<g id="XMLID_1_">
		<g>
		</g>
		<g>
			<path fill="none" stroke="#1A2B37" stroke-width="4" stroke-miterlimit="10" d="M2,469.8c0.5,58.5,48.3,104.8,106.9,103.4
				c58.5-1.4,105.6-50,105.1-108.5c-0.5-58.5-48.3-104.8-106.9-103.4C48.6,362.6,1.5,411.2,2,469.8z"/>
		</g>
	</g>
</g>
<line fill="none" stroke="#FFC763" stroke-width="5" stroke-linecap="round" stroke-linejoin="round" stroke-miterlimit="10" x1="199" y1="305.8" x2="193" y2="277.6"/>
<line fill="#414042" stroke="#F47E5D" stroke-width="6" stroke-linecap="round" stroke-linejoin="round" stroke-miterlimit="10" x1="199" y1="305.8" x2="396.5" y2="303.8"/>
<g>
	<path fill="#F47E5D" d="M240.1,499.5c0,0-2.1-0.2-5.7-1.2c-3.6-0.9-8.7-2.2-14.9-3.8c-12.3-3.2-28.8-7.4-45.2-11.6
		c-16.4-4.2-32.9-8.5-45.2-11.6c-12.3-3.2-20.5-5.3-20.5-5.3c-0.5-0.1-0.8-0.6-0.6-1.1c0.1-0.5,0.6-0.7,1-0.6c0,0,8.3,1.8,20.7,4.6
		c12.4,2.8,29,6.5,45.6,10.2c16.6,3.7,33.1,7.4,45.6,10.2c6.2,1.4,11.4,2.5,15,3.4c3.6,0.8,5.6,1.6,5.6,1.6c1.4,0.6,2.1,2.2,1.6,3.6
		C242.5,498.9,241.3,499.6,240.1,499.5z"/>
</g>
<g>
	<path fill="#F47E5D" d="M106.9,464.7c0,0,22.1-40.4,44.1-80.8c11.1-20.2,22.1-40.4,30.4-55.5c4.1-7.6,7.6-13.9,10-18.3
		c1.2-2.2,2.2-3.9,2.9-5.1c0.7-1.1,1.1-1.7,1.1-1.7c0.9-1.3,2.6-1.5,3.9-0.7c1.1,0.8,1.5,2.2,0.9,3.4c0,0-0.3,0.7-0.9,1.9
		c-0.6,1.2-1.5,2.9-2.8,5.1c-2.5,4.4-6.1,10.6-10.4,18.1c-8.6,15-20.1,34.9-31.7,54.8c-23.1,39.9-46.1,79.7-46.1,79.7
		c-0.2,0.4-0.8,0.6-1.2,0.3C106.8,465.6,106.7,465.1,106.9,464.7z"/>
</g>
<g>
	<path fill="#FFFFFF" d="M135.3,262.2c0,0,0.4-0.3,1.1-0.5c0.7-0.2,1.7-0.3,3,0c2.5,0.4,6.1,1,10.4,1.8c4.3,0.7,9.3,1.6,14.7,2.5
		c5.4,1,11.1,1.9,16.9,3c5.7,1.1,11.5,2.1,16.9,3.1c5.4,1,10.4,1.9,14.7,2.8c4.3,0.8,7.9,1.5,10.4,2c2.5,0.5,3.9,0.8,3.9,0.8
		c2,0.4,3.3,2.3,2.9,4.3c-0.3,1.7-1.8,2.9-3.5,3c0,0-1.5,0.1-4,0.1c-2.6,0.1-6.2,0.2-10.6,0.3c-4.4,0.1-9.5,0.3-15,0.4
		c-5.5,0.1-11.3,0.2-17.1,0.3c-5.8,0.1-11.7,0.2-17.1,0.2c-5.5,0-10.6,0.1-14.9,0.1c-4.4,0-8,0-10.6,0.1c-1.3,0.1-2.3-0.2-2.9-0.5
		c-0.7-0.3-1-0.7-1-0.7c-5.9-6.4-5.5-16.4,0.9-22.3C134.6,262.8,135,262.5,135.3,262.2z"/>
</g>
<path fill="none" stroke="#FFFFFF" stroke-width="2" stroke-linecap="round" stroke-miterlimit="10" stroke-dasharray="4,3" d="
	M265.2,470.4c-4.2-4-9.1-6.8-14.3-8.4v0h0c-4.4-1.3-139.3-13.6-139.3-13.6l0,0c-5.4-0.6-10.9,1.5-14.6,6c-5.7,7.1-4.6,17.4,2.5,23.1
	c0.5,0.4,1,0.7,1.5,1l0,0l0,0c1.8,1.2,124.4,48.7,124.4,48.7c1.7,0.8,3.5,1.5,5.3,2.1l4,1c11.2,2,23.1-1.4,31.6-10.2
	C279.6,506.1,279.2,483.8,265.2,470.4z"/>
<line fill="none" stroke="#1A2B37" stroke-width="4" stroke-linecap="round" stroke-miterlimit="10" x1="382.6" y1="257.6" x2="483" y2="257.6"/>
<line fill="none" stroke="#1A2B37" stroke-width="4" stroke-linecap="round" stroke-miterlimit="10" x1="483" y1="257.6" x2="524" y2="172.3"/>
<path fill="#FFFFFF" d="M202.8,503.9c-5.1,7.6-17.6-5.7-14.9-0.5c2.7,5.1,3.4,15.6,1.8,18.3c-1.6,2.7,3.2,8.1,8.6,7.9
	c5.4-0.1,12.4-3,8.9-7.5S203.8,502.4,202.8,503.9z"/>
<path fill="#87D3DF" stroke="#1A2B37" stroke-width="2" stroke-miterlimit="10" d="M178.2,220l-6.3,3.7c-5.6,0.9-30.5,11.6-32,17
	c-4.3,15.7-3.5,23.6,1.3,46.2c2.6,12.1,26.3,52.7,35.5,96c11.9,55.6,9.4,122.7,10.6,123.5c1.2,0.8,17.3,0.6,18.5-0.1
	c1.2-0.7,13.4-128.9,13.4-128.9s-10.5-88.7-10.1-88.6c-1.6-17.5,4.2-35.5,9.5-53c-13.9-3.5-23.9-5.9-23.9-5.9
	C189.7,223.9,185.9,218.8,178.2,220z"/>
<path d="M230.1,407"/>
<path fill="#FFFFFF" d="M474.5,122.8c-0.3-0.4-3.5,0.1-8.5,1.2l-3.1-19.5c-6,8.3-5.8,15.3-3.3,20.9c-18.8,4.2-50.4,12-65.2,13
	c-2.9,0.2-1.4,0.5-5-1c-18.6-7.9-63.6-21.5-63.6-21.5l-3.4,27.6c0,0,45.3,13.5,60.8,15c2.9,0.3,7.7,1.1,8.7,0.9
	c15.5-3.9,53.4-17.6,72-27.4c1.3,1.4,2.6,2.6,3.9,3.6l-0.8-5.3C472.6,127,475.7,124.4,474.5,122.8z"/>
<path fill="#F47E5D" stroke="#1A2B37" stroke-width="2" stroke-linecap="round" stroke-miterlimit="10" d="M291.1,99.9
	c0,0,46.3,15,49,17.4c2.7,2.5-7.9,29.6-7.9,29.6l-39.5-15.2L291.1,99.9z"/>
<path fill="#FFFFFF" d="M368.7,38.5c-3.3-16.9-33.6-29.6-51.2-24.5c-1.6-0.7-3.5-0.5-5.7,0.8c-21.5,12.6-16.9,18.2-20.4,33.5
	c-3.5,15.3,3.4,25-0.3,33.3s-23.7,18.4-23.7,18.4l35.9,16.5c0,0,6.6-20.1,12.5-22.4c0.4-0.1,0.8-0.7,1.2-1.5
	c8.1,5.9,19.2,12,22.9,12.2c5.8,0.4,6.8-2.4,7.7-5s4.9-7.7,7.5-11.8c2.6-4.1,5.2-13.6,6-16.8s4.3-4.6,5.6-6.9
	C368,62,370.4,47.1,368.7,38.5z"/>
<path fill="#FFFFFF" d="M444.2,250.4c-10.4-9.2-19.7-4.8-25.1-0.4c-8.4-8.4-45.7-38.2-58.2-52.4c-1.9-2.2-4.2-1.8-6.1-5.2
	c-9.8-17.6-26.5-44.1-26.5-44.1L308.5,168c0,0,21.5,29.5,32.8,40.2c2.1,2,2.9,4.1,3.7,4.8c15.5,12.2,60.7,39.2,72.8,40.3
	c0.4,0.3,0.9,0.5,1.6,0.3c11-2.4,18.5-1.9,23.2-0.8C444.2,253.2,445.4,251.5,444.2,250.4z"/>
<path fill="none" stroke="#1A2B37" stroke-linecap="round" stroke-linejoin="round" stroke-miterlimit="10" d="M352.4,209.1
	c-4.2,1.9-7.5-1.7-6.2-6"/>
<path fill="#1A2B37" d="M289.2,79.9c0.9,2.8,4.2-3.7,4.5-4.3c1.5-2.9,2.8-6,4-9c0.6-1.6,1.9-2.9,2.4-4.7c0.4-1.2,0.8-2.5,1.2-3.7
	c1.2-3.7,2.4-7.5,3.6-11.2c0.6-1.8,1.8-3.3,3.7-3.8c2-0.5,2.4,3,2.7,4.2c0.5,1.7,1,3.5,1.5,5.2c0.5,1.9,2.9,1.3,3.5-0.2
	c2.8-6.8,5.6-13.6,8.3-20.4c0.4-0.9,0.6-2,1.8-2c2.5,0,5,0.3,7.5,0.5c3.2,0.3,6.5,0.4,9.5,1.4c6.8,2.2,13.7,5.5,20.9,5.4
	c1.6,0,3.9,0.6,5.4,0.2c2.3-0.6,4.8-2.6,5.5-4.9c0.5-1.7,1-3.4,1.5-5.2c0.8-2.7-0.9-4.8-2.3-7c-0.8-1.2-2.8-2.1-3.9-2.8
	c-1.3-0.9-2.6-2.3-3.9-3.1c-2.9-1.6-5.8-3.3-8.7-4.9c-2.8-1.6-5.5-3.1-8.3-4.7c-2.3-1.3-5.8-1.4-8.4-1.8c-4.4-0.7-8.7-1.4-13.1-2.2
	c-2.7-0.4-6.1-1.6-8.9-0.7c-3,0.8-5.9,1.9-8.8,2.9c-2.8,0.9-6.1,1.5-8.8,2.9c-1.1,0.4-2.3,1.7-3.1,2.5c-1.8,1.7-3.6,3.5-5.4,5.3
	c-1.7,1.8-4.8,4-5.4,6.6c-1.2,4.6-2.3,9.2-3.5,13.7c-1.3,5.3-1.3,9.8-0.2,15.2c1.1,5,2.8,9.6,3.4,14.7
	C288.3,69.3,288.8,74.6,289.2,79.9z"/>
<path fill="#FFFFFF" stroke="#1A2B37" stroke-linecap="round" stroke-miterlimit="10" d="M353.3,56.4c-1.4,2.9,3.2,11.1,1.2,19.3
	c-0.6,2.5-3.5,5.4-6.4,2.5c-3.4-3.4-5.4,0-7.4-4.1"/>
<path fill="#F47E5D" stroke="#1A2B37" stroke-width="2" stroke-miterlimit="10" d="M137.3,248.3c11.7,7.4,109.7,23.8,98,1.7
	c-12.7-23.8,40.3-78.5,51.9-88.3c1.2-1,2.8-1,4-0.1c12.7,10,18.9,14.2,21.7,15.9c1.2,0.7,2.7,0.6,3.7-0.3l20.7-17.6
	c1.2-1,1.5-2.8,0.6-4.1c-5.5-8.7-25.2-39.2-36-46.6c-12.7-8.6-13.2-22.4-33.5-16.9C190,113.1,126,245,137.3,248.3z"/>
<path fill="none" stroke="#000000" stroke-linecap="round" stroke-miterlimit="10" d="M347.2,53.6c0,0-3.7-3.4-7.3-2.2
	c-4.5,1.4-8.1,1.9-8.1,1.9"/>
<path opacity="0.63" fill="#1A2B37" d="M348.6,82.2c-2.9-2.8-7-2.4-10.7-2.6c-4.2-0.2-6.5,0.3-8.1,4.5c-1.5,3.9-5.5,7-8.6,2.4
	c-1.8-2.6-1.9-5.3-2.4-8.4c-0.6-4.2-1.3-8.4-1.9-12.6c-0.1-0.8-0.5-8.5-2.7-7.1c-1.3,0.6-1.4,5.7-1.6,6.8c-0.7,4.1-1.4,8.2-2.1,12.3
	c-0.7,4.3-1.8,13.7,2.4,16.2c6.5,3.9,13,7.8,19.5,11.7c5.1,3,11.7,4.1,15.1-1.7c2-3.4,4-6.8,6-10.2
	C356.5,88.6,352.1,85.7,348.6,82.2z"/>
<path fill="#87D3DF" d="M342.2,58.1c-0.1,1.6-1.6,2.9-3.2,2.7s-2.9-1.6-2.7-3.3s1.6-2.9,3.2-2.7S342.4,56.4,342.2,58.1z"/>
<circle fill="#3C2415" cx="338.4" cy="57.7" r="1.6"/>
<path fill="#87D3DF" d="M360.4,63.6c-0.1,1.4-1.3,2.4-2.7,2.2c-1.4-0.1-2.4-1.4-2.3-2.7c0.1-1.4,1.3-2.4,2.7-2.2
	S360.5,62.2,360.4,63.6z"/>
<circle fill="#3C2415" cx="357.2" cy="63.2" r="1.3"/>
<path fill="none" stroke="#000000" stroke-linecap="round" stroke-miterlimit="10" d="M356.7,57.2c0,0,4.3-1.5,6.4,0.7
	c1.3,1.4,3.5,5,3.5,5"/>
<path fill="#FFFFFF" d="M335.1,87.2c1.3,1.2,5.7,6.6,7.5,6.2c1.7,0.3,8.9-1.4,8.4-3.7c-0.7-1.9-6.9-3.1-8.7-3.5
	C341.4,86,331.7,84.1,335.1,87.2z"/>
<path fill="none" stroke="#3C2415" stroke-miterlimit="10" d="M336.7,86.2c1.9,3.2,8.7,6,12.8,4"/>
<ellipse transform="matrix(-0.989 -0.1478 0.1478 -0.989 601.7554 151.9357)" fill="#FFFFFF" cx="306.5" cy="53.6" rx="8.3" ry="15.1"/>
<path fill="#FFFFFF" d="M240.8,495.2l-0.1,0c-1.2-0.4-2.6,0.2-3,1.5L219,551c-0.4,1.2,0.2,2.6,1.5,3l0.1,0c1.2,0.4,2.6-0.2,3-1.5
	l18.6-54.4C242.7,497,242,495.6,240.8,495.2z"/>
<path fill="#87D3DF" d="M232.9,549.6l-22.7-2.2c-2-0.2-3.8,1.2-4.1,3c-0.2,1.9,1.3,3.5,3.3,3.7l22.7,2.2c2,0.2,3.8-1.2,4.1-3
	C236.4,551.5,235,549.8,232.9,549.6z M221.8,554.1c-1.3,0.3-2.7-0.4-3-1.6c-0.3-1.2,0.4-2.5,1.8-2.8c1.3-0.3,2.7,0.4,3,1.6
	C224,552.5,223.2,553.7,221.8,554.1z"/>
<path d="M206.8,521.3c0.8,2,1.8,5.3-3.4,6.9c-8.2,2.4-15-6.4-15.8-7.1c0,0-0.6-0.1-0.6,0c-0.7,0.4-10.2,5.9-7.7,14c0,0,0,0,0,0
	c5.1,5.6,48.3,16.3,63,10.8c14.8-5.5,0.5-10.1-3.2-11.5"/>
<g>
	<path fill="#87D3DF" stroke="#1A2B37" stroke-width="2" stroke-miterlimit="10" d="M471.1,141.7c3.5-0.5,10.2-1.5,13.6-2
		c3.4-0.5,2.8-4.2,2.8-4.2s-5.8-39.1-6.1-41.1c-0.2-1.4-2-2.4-3.1-2.9c-0.6-0.3-1-0.7-1.1-1.3c-1.3-4.6-7-24.8-7.5-28.4
		c0-0.1,0-0.2,0-0.3c0.2-1.5,0-2.4-0.2-3c-0.2-0.4-0.6-0.6-1-0.6l-5.5,0.8c-0.4,0.1-0.8,0.4-0.8,0.8c0,0.6,0,1.6,0.7,2.9
		c0,0.1,0.1,0.1,0.1,0.2c0.5,3.7,0.9,25,1,29.5c0,0.5-0.2,1-0.6,1.3c-0.9,0.8-2.4,2.4-2.2,3.7c0.3,1.9,6.1,41.1,6.1,41.1
		S467.6,142.2,471.1,141.7z"/>
</g>
<polyline fill="#FFFFFF" stroke="#1A2B37" stroke-miterlimit="10" points="482.1,98.8 482,98.3 461.7,101.3 466.5,133.9 
	486.8,130.9 482.1,98.8 "/>
<path fill="#FFC763" stroke="#1A2B37" stroke-linecap="round" stroke-miterlimit="10" d="M306.5,116.7l-36.1-9.9
	c-2.4-0.7-4.7-1.8-6.7-3.3l-27.3-20.4c-1-0.5-0.8-2.9-0.8-2.9l0-0.1c0,0,1.8-1.6,2.7-1.2l27.8,20.6c2,1.5,4.3,2.6,6.7,3.3l35.6,9.6
	c1,0.5,0.8,2.9,0.8,2.9l0,0.1C309.2,115.5,307.5,117.1,306.5,116.7z"/>
<path fill="#FFC763" stroke="#1A2B37" stroke-linecap="round" stroke-miterlimit="10" d="M250.9,68.9L250.9,68.9c0,0,1,4.4-1.1,6.8
	c0,0-21.1,16.6-48.2,45.8s-74.6,91.1-74.6,91.1c-2.1,2.4-6.6,1.9-6.6,1.9h0c0,0-1-4.4,1.1-6.8c0,0,53.7-69.4,75.3-91.9
	s47.5-45,47.5-45C246.4,68.4,250.9,68.9,250.9,68.9z"/>
<path fill="#FFC763" stroke="#1A2B37" stroke-linecap="round" stroke-miterlimit="10" d="M256.5,73.1L256.5,73.1c0,0,1,4.4-1.2,6.8
	c0,0-14.8,10.3-49.2,46.9s-74,90.5-74,90.5c-2.1,2.4-6.6,1.9-6.6,1.9h0c0,0-1-4.4,1.2-6.8c0,0,46.6-60.9,74.9-91.4s48.3-46,48.3-46
	C252,72.6,256.5,73.1,256.5,73.1z"/>
<path fill="#FFC763" stroke="#1A2B37" stroke-linecap="round" stroke-miterlimit="10" d="M267,82.2L267,82.2c0,0,1,4.4-1.2,6.8
	c0,0-18.1,13.9-50.5,48.4s-72.9,89.1-72.9,89.1c-2.1,2.4-6.6,2-6.6,2l0,0c0,0-1-4.4,1.2-6.8c0,0,43.2-58,73.5-89.8
	s49.9-47.7,49.9-47.7C262.6,81.7,267,82.2,267,82.2z"/>
<path fill="#FFC763" stroke="#1A2B37" stroke-linecap="round" stroke-miterlimit="10" d="M261.6,77.9L261.6,77.9c0,0,1,4.4-1.2,6.8
	c0,0-23.3,19.8-49.7,47.5s-73.4,89.7-73.4,89.7c-2.1,2.4-6.6,1.9-6.6,1.9v0c0,0-1-4.4,1.2-6.8c0,0,45.2-59.8,73.7-90.1
	S255,79.8,255,79.8C257.1,77.4,261.6,77.9,261.6,77.9z"/>
<path fill="#FFC763" stroke="#1A2B37" stroke-linecap="round" stroke-miterlimit="10" d="M220.5,132.9L200.4,109
	c-1.1-1.3,0.4-4.5,0.4-4.5l0,0c0,0,3.3-1,4.5,0.4l20.2,23.9c1.1,1.3-0.4,4.5-0.4,4.5h0C225,133.2,221.6,134.2,220.5,132.9z"/>
<path fill="#FFC763" stroke="#1A2B37" stroke-linecap="round" stroke-miterlimit="10" d="M216.3,138l-20.2-23.9
	c-1.1-1.3,0.4-4.5,0.4-4.5l0,0c0,0,3.3-1,4.5,0.4l20.2,23.9c1.1,1.3-0.4,4.5-0.4,4.5l0,0C220.8,138.3,217.5,139.3,216.3,138z"/>
<path fill="#FFC763" stroke="#1A2B37" stroke-linecap="round" stroke-miterlimit="10" d="M212.1,143.1L192,119.3
	c-1.1-1.3,0.4-4.5,0.4-4.5l0,0c0,0,3.3-1,4.5,0.4l20.2,23.9c1.1,1.3-0.4,4.5-0.4,4.5l0,0C216.6,143.5,213.3,144.5,212.1,143.1z"/>
<path fill="#FFC763" stroke="#1A2B37" stroke-linecap="round" stroke-miterlimit="10" d="M236.8,227.2l-49.6-8.9
	c-3.9-0.7-7.6-2-11-4l-39.8-22.7c-1.4-0.5-1.6-3.5-1.6-3.5l0-0.1c0,0,2.1-2.2,3.4-1.7l40.5,22.9c3.4,1.9,7.2,3.3,11,4l48.9,8.6
	c1.4,0.5,1.6,3.5,1.6,3.5l0,0.1C240.3,225.5,238.2,227.7,236.8,227.2z"/>
<path fill="#FFC763" stroke="#1A2B37" stroke-linecap="round" stroke-miterlimit="10" d="M208.5,148.1l-20.2-23.9
	c-1.1-1.3,0.4-4.5,0.4-4.5v0c0,0,3.3-1,4.5,0.4l20.2,23.9c1.1,1.3-0.4,4.5-0.4,4.5l0,0C213,148.5,209.6,149.5,208.5,148.1z"/>
<path fill="#FFC763" stroke="#1A2B37" stroke-linecap="round" stroke-miterlimit="10" d="M207.9,147l-4.6-23l-3.4-17
	c-0.4-2.2,2.1-4.6,2.1-4.6v0c0,0,3.3,1.2,3.8,3.5l8.1,40c0.4,2.2-2.1,4.6-2.1,4.6l0,0C211.7,150.5,208.4,149.2,207.9,147z"/>
<g>
	<path fill="#FFC763" d="M474.6,110.2c0,0.1,0,0.2,0.1,0.2C475.3,110.5,474.5,109.2,474.6,110.2z"/>
	<path fill="#FFC763" d="M477.5,104.4c0,0.1,0,0.1,0,0.2C477.5,104.6,477.5,104.3,477.5,104.4z"/>
	<path fill="#FFC763" d="M485.6,126c0.2-0.3-0.2-1.6-0.3-2c-4.7,1.9-9.8,0.6-11.7-4.4c1.4-0.1,2.8,0.1,4.1,0.4
		c1.4,0.3,1.6-1.3,2.3-2.1c1.2-1.4,1.5-1.6,3-0.5c0.5,0.3,1,0.7,1.5,1.1c-0.5-3.4-0.6-7.6-1.7-10.8c-0.9-0.8-0.1-1.5-0.3-2.7
		c-0.1-0.8-0.3-1.7-0.4-2.6c-0.3-2.1-2.7-3.8-4.4-2c-0.8,0.8-1.4,1.6-1.8,2.6c-0.7,1.7-0.2,0-1.4,0.9c-1.5,1-2,3.4-1.9,5.1
		c0,0.5,0,0.9,0.1,1.4c-0.5,0.1-0.8,0.4-0.9,0.8c-0.4,1.2-0.7,2.5-0.7,3.8c0,1,0.2,2.1,0.6,3.1c-0.7,0.5-0.2,1.6,0,2.2
		c1.1,3.1,3.5,5.5,6.7,6.4c0.9,0.2,1.9,0.3,2.8,0.3c0.8,0,0.6,1.2,0.7,1.9c0.2,0.7,0.4,2.2,1.4,2.2c1.9,0,0.4-3.3,0.3-4.2
		C483.6,126.3,485.4,126.4,485.6,126z M480.9,115.2c0.1,0,0.1,0.1,0.2,0.1c0,0,0,0,0,0C481,115.3,480.9,115.2,480.9,115.2z
		 M476.9,117.9c-1.1-0.2-2.1-0.2-3.2-0.2c-0.7-1.6-0.8-3.4-0.3-5.1c0.4-1.2,2.9,0.7,3.3,1.3C477.5,114.8,479.3,118.3,476.9,117.9z
		 M476.4,111.1c-0.5-0.3-1.1-0.6-1.7-0.7c0-0.1,0-0.2-0.1-0.2c-0.3-1.7-0.3-5.3,2-3.8C479,107.9,476.9,109,476.4,111.1z
		 M483.3,111.1c0.2,0.9-0.6,2.9-0.7,3.8c-1.1-0.6-2-0.4-2.8,0.5c-0.5-1.2-1.6-2.4-1.4-3.7c0.2-1.3,1-2.5,1.9-3.5
		C481,108.7,483,110,483.3,111.1z M480.4,106.1c-0.9-0.3-0.7,0.5-1.4-0.3c-0.5-0.5-0.9-0.8-1.5-1.2c0-0.1,0-0.1,0-0.2
		c0.3-1.3,1.1-3.2,2.5-2.4c0.4,0.3,1.8,1.3,1.9,1.9C481.9,104.3,480.6,105.6,480.4,106.1z"/>
</g>
</svg>
