<svg version="1.1"
	 xmlns="http://www.w3.org/2000/svg" xmlns:xlink="http://www.w3.org/1999/xlink" xmlns:a="http://ns.adobe.com/AdobeSVGViewerExtensions/3.0/"
	 x="0px" y="0px" width="188.9px" height="232.2px" viewBox="0 0 188.9 232.2" enable-background="new 0 0 188.9 232.2"
	 xml:space="preserve">
<defs>
</defs>
<rect x="0" y="7.3" opacity="0.5" fill="#FFFFFF" width="182.2" height="224.9"/>
<rect x="6.7" y="0" fill="#FFFFFF" width="182.2" height="224.9"/>
<rect x="20.4" y="139.1" opacity="0.7" fill="#73CBDA" width="153.5" height="6.8"/>
<rect x="20.4" y="147.5" opacity="0.7" fill="#73CBDA" width="153.5" height="6.7"/>
<g>
	<circle fill="#F47D5B" cx="159.1" cy="189.7" r="14.8"/>
	<g>
		<path fill="#FFFFFF" d="M156.4,185.3c-0.3-0.2-0.5-0.5-0.5-0.8c0-0.3,0.1-0.6,0.3-0.9c0.2-0.3,0.5-0.5,0.8-0.5
			c0.3,0,0.6,0.1,0.9,0.3c4.1,2.2,6.8,3.6,8,4.4c0.7,0.4,1.1,0.9,1.1,1.6c0,0.7-0.4,1.3-1.1,1.6l-8.2,4.4c-0.3,0.2-0.6,0.2-1,0.2
			c-0.3,0-0.6-0.1-0.8-0.4c-0.2-0.3-0.3-0.6-0.3-0.9c0-0.3,0.1-0.6,0.4-0.8c0.5-0.3,1.8-1,4-2c2.2-1.1,3.6-1.7,4.1-2L156.4,185.3z"
			/>
	</g>
</g>
<rect x="20.4" y="22.8" fill="#73CBDA" width="96.8" height="16.3"/>
<line fill="#FFFFFF" stroke="#F47D5B" stroke-width="2" stroke-linecap="round" stroke-linejoin="round" stroke-miterlimit="10" x1="97.1" y1="165.9" x2="97.1" y2="213.4"/>
<g>
	<circle fill="#F47D5B" cx="35.1" cy="189.7" r="14.8"/>
	<g>
		<path fill="#FFFFFF" d="M37.7,194c0.3,0.2,0.5,0.5,0.5,0.8c0,0.3-0.1,0.6-0.3,0.9c-0.2,0.3-0.5,0.5-0.8,0.5
			c-0.3,0-0.6-0.1-0.9-0.3c-4.1-2.2-6.8-3.6-8-4.4c-0.7-0.4-1.1-0.9-1.1-1.6c0-0.7,0.4-1.3,1.1-1.6l8.2-4.4c0.3-0.2,0.6-0.2,1-0.2
			c0.3,0,0.6,0.1,0.8,0.4c0.2,0.3,0.3,0.6,0.3,0.9c0,0.3-0.1,0.6-0.4,0.8c-0.5,0.3-1.8,1-4,2c-2.2,1.1-3.6,1.7-4.1,2L37.7,194z"/>
	</g>
</g>
<rect x="56.6" y="167.1" fill="#73CBDA" width="35.1" height="9.4"/>
<rect x="52.7" y="181.1" opacity="0.7" fill="#73CBDA" width="39" height="4.4"/>
<rect x="52.7" y="187.6" opacity="0.7" fill="#73CBDA" width="39" height="4.4"/>
<rect x="52.7" y="194.1" opacity="0.7" fill="#73CBDA" width="39" height="4.4"/>
<rect x="52.7" y="200.6" opacity="0.7" fill="#73CBDA" width="39" height="4.4"/>
<rect x="102.6" y="167.1" fill="#73CBDA" width="35.1" height="9.4"/>
<rect x="102.6" y="181.1" opacity="0.7" fill="#73CBDA" width="39" height="4.4"/>
<rect x="102.6" y="187.6" opacity="0.7" fill="#73CBDA" width="39" height="4.4"/>
<rect x="102.6" y="194.1" opacity="0.7" fill="#73CBDA" width="39" height="4.4"/>
<rect x="102.6" y="200.6" opacity="0.7" fill="#73CBDA" width="39" height="4.4"/>
<rect x="20.4" y="122.4" opacity="0.7" fill="#73CBDA" width="153.5" height="6.8"/>
<rect x="20.4" y="130.8" opacity="0.7" fill="#73CBDA" width="153.5" height="6.8"/>
<rect x="20.4" y="97.1" opacity="0.7" fill="#73CBDA" width="153.5" height="6.8"/>
<rect x="20.4" y="105.5" opacity="0.7" fill="#73CBDA" width="153.5" height="6.7"/>
<rect x="20.4" y="80.4" opacity="0.7" fill="#73CBDA" width="153.5" height="6.8"/>
<rect x="20.4" y="88.8" opacity="0.7" fill="#73CBDA" width="153.5" height="6.8"/>
<rect x="20.4" y="72.1" opacity="0.7" fill="#73CBDA" width="153.5" height="6.8"/>
<rect x="20.4" y="47.6" opacity="0.7" fill="#73CBDA" width="153.5" height="6.8"/>
<rect x="20.4" y="56" opacity="0.7" fill="#73CBDA" width="153.5" height="6.7"/>
</svg>